HIERARCHY
ROOT Hips
{
  OFFSET 5.72205e-005 65.662 3.42586
  CHANNELS 6 Xposition Yposition Zposition Zrotation Xrotation Yrotation
  JOINT Chest
  {
    OFFSET 0 8.7983 -4.7612
    CHANNELS 6 Xposition Yposition Zposition Zrotation Xrotation Yrotation
    JOINT Chest2
    {
      OFFSET 0 8.0291 0.4195
      CHANNELS 6 Xposition Yposition Zposition Zrotation Xrotation Yrotation
      JOINT Chest3
      {
        OFFSET 0 9.9351 -2.2114
        CHANNELS 6 Xposition Yposition Zposition Zrotation Xrotation Yrotation
        JOINT Neck
        {
          OFFSET 0 22.3885 -0.4656
          CHANNELS 6 Xposition Yposition Zposition Zrotation Xrotation Yrotation
          JOINT Head
          {
            OFFSET -0.0001 12.643 3.4389
            CHANNELS 6 Xposition Yposition Zposition Zrotation Xrotation Yrotation
            End Site
            {
              OFFSET 0.0001 17.6655 0.5274
            }
          }
        }
        JOINT LeftCollar
        {
          OFFSET 2.2603 21.606 7.4023
          CHANNELS 6 Xposition Yposition Zposition Zrotation Xrotation Yrotation
          JOINT LeftShoulder
          {
            OFFSET 13.5163 -1.1332 -5.0146
            CHANNELS 6 Xposition Yposition Zposition Zrotation Xrotation Yrotation
            JOINT LeftElbow
            {
              OFFSET -0.0995 -28.05 -0.2431
              CHANNELS 6 Xposition Yposition Zposition Zrotation Xrotation Yrotation
              JOINT LeftWrist
              {
                OFFSET 0.0679 -23.3996 -0.1402
                CHANNELS 6 Xposition Yposition Zposition Zrotation Xrotation Yrotation
                JOINT LeftFinger1
                {
                  OFFSET 0.7932 -9.069 2.5189
                  CHANNELS 6 Xposition Yposition Zposition Zrotation Xrotation Yrotation
                  JOINT LeftFinger11
                  {
                    OFFSET -0.8272 -3.3923 0.5977
                    CHANNELS 6 Xposition Yposition Zposition Zrotation Xrotation Yrotation
                    JOINT LeftFinger12
                    {
                      OFFSET -0.5649 -2.3158 0.4082
                      CHANNELS 6 Xposition Yposition Zposition Zrotation Xrotation Yrotation
                      End Site
                      {
                        OFFSET -0.4919 -1.6479 0.2673
                      }
                    }
                  }
                }
                JOINT LeftFinger2
                {
                  OFFSET 0.9159 -9.2044 0.2193
                  CHANNELS 6 Xposition Yposition Zposition Zrotation Xrotation Yrotation
                  JOINT LeftFinger21
                  {
                    OFFSET 0.0117 -4.1944 -0.0248
                    CHANNELS 6 Xposition Yposition Zposition Zrotation Xrotation Yrotation
                    JOINT LeftFinger22
                    {
                      OFFSET 0.0071 -2.3249 -0.0142
                      CHANNELS 6 Xposition Yposition Zposition Zrotation Xrotation Yrotation
                      End Site
                      {
                        OFFSET -0.1475 -2.0882 0.0028
                      }
                    }
                  }
                }
                JOINT LeftFinger3
                {
                  OFFSET 0.6113 -8.7231 -2.0637
                  CHANNELS 6 Xposition Yposition Zposition Zrotation Xrotation Yrotation
                  JOINT LeftFinger31
                  {
                    OFFSET -0.1927 -3.8059 -0.2383
                    CHANNELS 6 Xposition Yposition Zposition Zrotation Xrotation Yrotation
                    JOINT LeftFinger32
                    {
                      OFFSET -0.1091 -2.1688 -0.1362
                      CHANNELS 6 Xposition Yposition Zposition Zrotation Xrotation Yrotation
                      End Site
                      {
                        OFFSET -0.2358 -1.9176 -0.0906
                      }
                    }
                  }
                }
                JOINT LeftFinger4
                {
                  OFFSET -0.6151 -8.0947 -3.5641
                  CHANNELS 6 Xposition Yposition Zposition Zrotation Xrotation Yrotation
                  JOINT LeftFinger41
                  {
                    OFFSET -0.4882 -2.341 -0.6462
                    CHANNELS 6 Xposition Yposition Zposition Zrotation Xrotation Yrotation
                    JOINT LeftFinger42
                    {
                      OFFSET -0.3575 -1.7167 -0.4742
                      CHANNELS 6 Xposition Yposition Zposition Zrotation Xrotation Yrotation
                      End Site
                      {
                        OFFSET -0.4187 -1.5237 -0.3496
                      }
                    }
                  }
                }
                JOINT LeftFinger0
                {
                  OFFSET -1.42 -1.8761 1.4223
                  CHANNELS 6 Xposition Yposition Zposition Zrotation Xrotation Yrotation
                  JOINT LeftFinger01
                  {
                    OFFSET -1.1471 -3.4929 2.6334
                    CHANNELS 6 Xposition Yposition Zposition Zrotation Xrotation Yrotation
                    JOINT LeftFinger02
                    {
                      OFFSET -0.823 -2.3 1.6571
                      CHANNELS 6 Xposition Yposition Zposition Zrotation Xrotation Yrotation
                      End Site
                      {
                        OFFSET -0.5822 -1.6914 1.1582
                      }
                    }
                  }
                }
              }
            }
          }
        }
        JOINT RightCollar
        {
          OFFSET -2.2603 21.606 7.4023
          CHANNELS 6 Xposition Yposition Zposition Zrotation Xrotation Yrotation
          JOINT RightShoulder
          {
            OFFSET -13.5187 -1.1334 -5.0155
            CHANNELS 6 Xposition Yposition Zposition Zrotation Xrotation Yrotation
            JOINT RightElbow
            {
              OFFSET 0.0994 -28.0499 -0.2431
              CHANNELS 6 Xposition Yposition Zposition Zrotation Xrotation Yrotation
              JOINT RightWrist
              {
                OFFSET -0.0679 -23.3996 -0.1402
                CHANNELS 6 Xposition Yposition Zposition Zrotation Xrotation Yrotation
                JOINT RightFinger1
                {
                  OFFSET -0.7932 -9.0691 2.5189
                  CHANNELS 6 Xposition Yposition Zposition Zrotation Xrotation Yrotation
                  JOINT RightFinger11
                  {
                    OFFSET 0.8272 -3.3923 0.5977
                    CHANNELS 6 Xposition Yposition Zposition Zrotation Xrotation Yrotation
                    JOINT RightFinger12
                    {
                      OFFSET 0.565 -2.3158 0.4082
                      CHANNELS 6 Xposition Yposition Zposition Zrotation Xrotation Yrotation
                      End Site
                      {
                        OFFSET 0.4919 -1.6479 0.2673
                      }
                    }
                  }
                }
                JOINT RightFinger2
                {
                  OFFSET -0.916 -9.2044 0.2193
                  CHANNELS 6 Xposition Yposition Zposition Zrotation Xrotation Yrotation
                  JOINT RightFinger21
                  {
                    OFFSET -0.0117 -4.1944 -0.0248
                    CHANNELS 6 Xposition Yposition Zposition Zrotation Xrotation Yrotation
                    JOINT RightFinger22
                    {
                      OFFSET -0.0071 -2.3249 -0.0142
                      CHANNELS 6 Xposition Yposition Zposition Zrotation Xrotation Yrotation
                      End Site
                      {
                        OFFSET 0.1475 -2.0882 0.0028
                      }
                    }
                  }
                }
                JOINT RightFinger3
                {
                  OFFSET -0.6113 -8.7231 -2.0637
                  CHANNELS 6 Xposition Yposition Zposition Zrotation Xrotation Yrotation
                  JOINT RightFinger31
                  {
                    OFFSET 0.1927 -3.8059 -0.2383
                    CHANNELS 6 Xposition Yposition Zposition Zrotation Xrotation Yrotation
                    JOINT RightFinger32
                    {
                      OFFSET 0.1091 -2.1688 -0.1362
                      CHANNELS 6 Xposition Yposition Zposition Zrotation Xrotation Yrotation
                      End Site
                      {
                        OFFSET 0.2358 -1.9176 -0.0906
                      }
                    }
                  }
                }
                JOINT RightFinger4
                {
                  OFFSET 0.6151 -8.0947 -3.564
                  CHANNELS 6 Xposition Yposition Zposition Zrotation Xrotation Yrotation
                  JOINT RightFinger41
                  {
                    OFFSET 0.4882 -2.341 -0.6462
                    CHANNELS 6 Xposition Yposition Zposition Zrotation Xrotation Yrotation
                    JOINT RightFinger42
                    {
                      OFFSET 0.3574 -1.7166 -0.4742
                      CHANNELS 6 Xposition Yposition Zposition Zrotation Xrotation Yrotation
                      End Site
                      {
                        OFFSET 0.4187 -1.5237 -0.3496
                      }
                    }
                  }
                }
                JOINT RightFinger0
                {
                  OFFSET 1.4199 -1.8761 1.4221
                  CHANNELS 6 Xposition Yposition Zposition Zrotation Xrotation Yrotation
                  JOINT RightFinger01
                  {
                    OFFSET 1.1472 -3.4929 2.6336
                    CHANNELS 6 Xposition Yposition Zposition Zrotation Xrotation Yrotation
                    JOINT RightFinger02
                    {
                      OFFSET 0.8229 -2.3 1.6571
                      CHANNELS 6 Xposition Yposition Zposition Zrotation Xrotation Yrotation
                      End Site
                      {
                        OFFSET 0.5822 -1.6914 1.1582
                      }
                    }
                  }
                }
              }
            }
          }
        }
      }
    }
  }
  JOINT RightHip
  {
    OFFSET -9.412 3.9771 -0.7758
    CHANNELS 6 Xposition Yposition Zposition Zrotation Xrotation Yrotation
    JOINT RightKnee
    {
      OFFSET -0.7531 -40.938 0
      CHANNELS 6 Xposition Yposition Zposition Zrotation Xrotation Yrotation
      JOINT RightAnkle
      {
        OFFSET 0 -40.1986 0
        CHANNELS 6 Xposition Yposition Zposition Zrotation Xrotation Yrotation
        JOINT RightToe
        {
          OFFSET 0 -4.4182 9.239
          CHANNELS 6 Xposition Yposition Zposition Zrotation Xrotation Yrotation
          End Site
          {
            OFFSET 0 0 6.1981
          }
        }
      }
    }
  }
  JOINT LeftHip
  {
    OFFSET 9.4119 3.9773 -0.7758
    CHANNELS 6 Xposition Yposition Zposition Zrotation Xrotation Yrotation
    JOINT LeftKnee
    {
      OFFSET 0.7532 -40.9383 0
      CHANNELS 6 Xposition Yposition Zposition Zrotation Xrotation Yrotation
      JOINT LeftAnkle
      {
        OFFSET 0 -40.1986 0
        CHANNELS 6 Xposition Yposition Zposition Zrotation Xrotation Yrotation
        JOINT LeftToe
        {
          OFFSET 0 -4.4182 9.239
          CHANNELS 6 Xposition Yposition Zposition Zrotation Xrotation Yrotation
          End Site
          {
            OFFSET 0 0 6.1981
          }
        }
      }
    }
  }
}
MOTION
Frames:	4
Frame Time:	0.0333333
0.412709 64.6527 0.523701 -0.00580438 -7.73277 -170.058 -2.22045e-016 8.7983 -4.7612 0.0346522 11.0512 -0.191034 2.22045e-016 8.0291 0.4195 0.110882 22.1023 -0.400567 0 9.9351 -2.2114 0.110882 22.1023 -0.40057 2.22045e-016 22.3885 -0.4656 -4.3074 -11.3148 -7.76238 -0.0001 12.643 3.4389 -4.18489 -4.98915 -0.70246 2.2603 21.606 7.4023 -41.7429 -44.4287 -37.6519 13.5163 -1.1332 -5.0146 64.3664 33.0141 12.1683 -0.0995 -28.05 -0.2431 -23.0821 2.0938 18.9246 0.0679 -23.3996 -0.1402 -20.4024 -32.1867 1.92306 0.7932 -9.069 2.5189 -2.89762e-008 -1.34558e-006 -2.11182e-006 -0.8272 -3.3923 0.5977 2.03754e-015 -3.77691e-015 -0 -0.5649 -2.3158 0.4082 4.34124e-006 1.25241e-006 1.64021e-006 0.9159 -9.2044 0.2193 -2.89762e-008 -1.34558e-006 -2.11182e-006 0.0117 -4.1944 -0.0248 -0.0127879 0.00231846 8.71286e-005 0.0071 -2.3249 -0.0142 1.0907e-007 5.10554e-006 -1.2067e-005 0.6113 -8.7231 -2.0637 -2.89762e-008 -1.34558e-006 -2.11182e-006 -0.1927 -3.8059 -0.2383 -0.0160672 0.00299856 0.000865588 -0.1091 -2.1688 -0.1362 -2.28602e-015 -2.76688e-006 -6.36111e-015 -0.6151 -8.0947 -3.5641 -2.89762e-008 -1.34558e-006 -2.11182e-006 -0.4882 -2.341 -0.6462 -0.0125707 0.00311254 0.00283213 -0.3575 -1.7167 -0.4742 -2.22403e-006 -1.40597e-006 -5.06338e-006 -1.42 -1.8761 1.4223 -2.89762e-008 -1.34558e-006 -2.11182e-006 -1.1471 -3.4929 2.6334 2.03754e-015 -3.77691e-015 -0 -0.823 -2.3 1.6571 4.34124e-006 1.25241e-006 1.64021e-006 -2.2603 21.606 7.4023 7.40977 -52.4509 17.4775 -13.5187 -1.1334 -5.0155 -69.8993 38.4216 -15.6581 0.0994 -28.0499 -0.2431 80.1589 -3.49638 -10.3174 -0.0679 -23.3996 -0.1402 9.83834 -28.7228 0.621516 -0.7932 -9.0691 2.5189 -7.65836e-007 -5.0293e-007 3.16971e-007 0.8272 -3.3923 0.5977 -3.17801e-030 -9.54166e-015 -1.90833e-014 0.565 -2.3158 0.4082 -1.59028e-015 -6.36111e-015 -9.54166e-015 -0.916 -9.2044 0.2193 -7.65836e-007 -5.0293e-007 3.16971e-007 -0.0117 -4.1944 -0.0248 0.0130064 0.00232069 -8.60588e-005 -0.0071 -2.3249 -0.0142 -3.18055e-015 -3.18055e-015 -3.18055e-015 -0.6113 -8.7231 -2.0637 -7.65836e-007 -5.0293e-007 3.16971e-007 0.1927 -3.8059 -0.2383 0.0163107 0.0030263 -0.000879343 0.1091 -2.1688 -0.1362 4.77083e-015 3.18055e-015 -0 0.6151 -8.0947 -3.564 -7.65836e-007 -5.0293e-007 3.16971e-007 0.4882 -2.341 -0.6462 0.0145899 0.00367871 -0.00326919 0.3574 -1.7166 -0.4742 1.76556e-031 -3.18055e-015 3.18055e-015 1.4199 -1.8761 1.4221 -7.65836e-007 -5.0293e-007 3.16971e-007 1.1472 -3.4929 2.6336 -3.17801e-030 -9.54166e-015 -1.90833e-014 0.8229 -2.3 1.6571 -1.59028e-015 -6.36111e-015 -9.54166e-015 -9.412 3.9771 -0.7758 -117.991 -36.1615 -133.247 -0.7531 -40.938 7.10543e-015 -150.299 57.208 149.624 -1.77636e-015 -40.1986 0 -5.67403 -23.0761 0.999208 0 -4.4182 9.239 -4.17983e-007 -2.66982e-007 8.51764e-008 9.4119 3.9773 -0.7758 39.6481 28.9292 72.14 0.7532 -40.9383 7.10543e-015 84.9191 48.2265 -110.765 0 -40.1986 -3.55271e-015 0.62558 25.9082 29.7729 -7.10543e-015 -4.4182 9.239 -6.37737e-006 -3.48036e-006 2.23963e-006 
0.41004 64.7215 0.592573 -0.00597151 -8.26182 -170.056 0 8.7983 -4.7612 0.0349509 10.9791 -0.190781 -2.22045e-016 8.0291 0.4195 0.111117 21.9582 -0.399891 0 9.9351 -2.2114 0.11112 21.9582 -0.399896 6.66134e-016 22.3885 -0.4656 -4.28849 -11.7549 -7.76498 -0.0001 12.643 3.4389 -4.1629 -5.55762 -0.7282 2.2603 21.606 7.4023 -42.3148 -44.3282 -37.6002 13.5163 -1.1332 -5.0146 64.5689 32.5929 12.1387 -0.0995 -28.05 -0.2431 -22.3492 1.99346 18.9402 0.0679 -23.3996 -0.1402 -20.5299 -31.9728 2.16329 0.7932 -9.06901 2.5189 8.21568e-007 1.71861e-006 1.88095e-006 -0.8272 -3.3923 0.5977 -8.69683e-016 -3.13086e-015 3.18055e-015 -0.5649 -2.3158 0.4082 4.67279e-006 2.40786e-006 4.39735e-006 0.9159 -9.20441 0.2193 8.21568e-007 1.71861e-006 1.88095e-006 0.0117 -4.1944 -0.0248 -0.0128201 0.00233265 8.54353e-005 0.0071 -2.3249 -0.0142 3.20753e-006 5.59262e-006 -3.00204e-006 0.6113 -8.72311 -2.0637 8.21568e-007 1.71861e-006 1.88095e-006 -0.1927 -3.8059 -0.2383 -0.0160437 0.00300023 0.000862689 -0.1091 -2.1688 -0.1362 5.78936e-006 -1.88557e-006 -9.41748e-006 -0.6151 -8.09471 -3.5641 8.21568e-007 1.71861e-006 1.88095e-006 -0.4882 -2.341 -0.6462 -0.0126035 0.00313204 0.00282497 -0.3575 -1.7167 -0.4742 7.60679e-006 -2.57372e-006 4.95166e-006 -1.42 -1.8761 1.4223 8.21568e-007 1.71861e-006 1.88095e-006 -1.1471 -3.4929 2.6334 -8.69683e-016 -3.13086e-015 3.18055e-015 -0.823 -2.3 1.6571 4.67279e-006 2.40786e-006 4.39735e-006 -2.2603 21.606 7.4023 7.53607 -52.328 17.4456 -13.5187 -1.1334 -5.0155 -69.8992 38.4217 -15.6581 0.0994 -28.0499 -0.2431 80.0469 -3.50278 -10.3348 -0.0679 -23.3996 -0.1402 10.1499 -28.9551 0.899642 -0.7932 -9.06911 2.5189 2.22639e-014 6.36111e-015 -9.54166e-015 0.8272 -3.3923 0.5977 2.70347e-014 -1.65612e-006 -3.18055e-015 0.565 -2.3158 0.4082 1.90833e-014 1.90833e-014 -1.27222e-014 -0.916 -9.20441 0.2193 2.22639e-014 6.36111e-015 -9.54166e-015 -0.0117 -4.1944 -0.0248 0.0129521 0.0023128 -7.81543e-005 -0.0071 -2.3249 -0.0142 3.18055e-015 -6.36111e-015 9.54166e-015 -0.6113 -8.72311 -2.0637 2.22639e-014 6.36111e-015 -9.54166e-015 0.1927 -3.8059 -0.2383 0.0162825 0.00302696 -0.00086068 0.1091 -2.1688 -0.1362 -3.18055e-015 -6.36111e-015 6.36111e-015 0.6151 -8.09471 -3.564 2.22639e-014 6.36111e-015 -9.54166e-015 0.4882 -2.341 -0.6462 0.0145929 0.00368019 -0.00325419 0.3574 -1.7166 -0.4742 -1.59028e-015 3.18055e-015 3.18055e-015 1.4199 -1.8761 1.4221 2.22639e-014 6.36111e-015 -9.54166e-015 1.1472 -3.4929 2.6336 2.70347e-014 -1.65612e-006 -3.18055e-015 0.8229 -2.3 1.6571 1.90833e-014 1.90833e-014 -1.27222e-014 -9.412 3.9771 -0.7758 -118.449 -36.1782 -133.715 -0.7531 -40.938 7.10543e-015 -150.305 57.2033 149.63 -5.32907e-015 -40.1986 -3.55271e-015 -5.51519 -23.071 0.833267 0 -4.4182 9.239 -7.14417e-007 -4.14912e-007 -2.80863e-006 9.4119 3.9773 -0.7758 39.3812 28.4911 72.5947 0.7532 -40.9383 7.10543e-015 84.9393 48.2274 -110.783 7.10543e-015 -40.1986 7.10543e-015 0.695055 25.9869 29.7847 7.10543e-015 -4.4182 9.239 9.08913e-006 2.87024e-006 -3.07472e-006 
0.407318 64.791 0.661644 -0.00611406 -8.79081 -170.054 0 8.7983 -4.7612 0.0352439 10.9071 -0.190521 2.22045e-016 8.0291 0.4195 0.111352 21.814 -0.399219 0 9.9351 -2.2114 0.111352 21.814 -0.39922 -3.33067e-016 22.3885 -0.4656 -4.26957 -12.195 -7.76744 -0.0001 12.643 3.4389 -4.14115 -6.12612 -0.753747 2.2603 21.606 7.4023 -42.8857 -44.228 -37.547 13.5163 -1.1332 -5.0146 64.7703 32.1717 12.1108 -0.0995 -28.05 -0.2431 -21.6166 1.89327 18.957 0.0679 -23.3996 -0.1402 -20.6582 -31.7593 2.4035 0.7932 -9.069 2.5189 5.97005e-006 3.45247e-006 1.18424e-006 -0.8272 -3.3923 0.5977 4.6881e-007 -1.03186e-005 -8.91495e-007 -0.5649 -2.3158 0.4082 1.02498e-015 -2.31708e-015 -9.54166e-015 0.9159 -9.2044 0.2193 5.97005e-006 3.45247e-006 1.18424e-006 0.0117 -4.1944 -0.0248 -0.0128206 0.00232458 8.94144e-005 0.0071 -2.3249 -0.0142 -1.94961e-006 -1.66911e-006 -4.41136e-006 0.6113 -8.7231 -2.0637 5.97005e-006 3.45247e-006 1.18424e-006 -0.1927 -3.8059 -0.2383 -0.0160242 0.00299481 0.000848405 -0.1091 -2.1688 -0.1362 -1.60925e-006 -7.11064e-007 4.51353e-007 -0.6151 -8.0947 -3.5641 5.97005e-006 3.45247e-006 1.18424e-006 -0.4882 -2.341 -0.6462 -0.0126078 0.00311718 0.00283855 -0.3575 -1.7167 -0.4742 -1.60923e-006 -7.16434e-007 4.51361e-007 -1.42 -1.8761 1.4223 5.97005e-006 3.45247e-006 1.18424e-006 -1.1471 -3.4929 2.6334 4.6881e-007 -1.03186e-005 -8.91495e-007 -0.823 -2.3 1.6571 1.02498e-015 -2.31708e-015 -9.54166e-015 -2.2603 21.606 7.4023 7.66211 -52.205 17.4134 -13.5187 -1.1334 -5.0155 -69.8992 38.4217 -15.6581 0.0994 -28.0499 -0.2431 79.9349 -3.50903 -10.3522 -0.0679 -23.3996 -0.1402 10.4634 -29.1862 1.17989 -0.7932 -9.0691 2.5189 1.50859e-006 8.55766e-007 2.50209e-006 0.8272 -3.3923 0.5977 3.18055e-015 -6.36111e-015 -3.18055e-015 0.565 -2.3158 0.4082 3.18055e-015 3.18055e-015 -0 -0.916 -9.2044 0.2193 1.50859e-006 8.55766e-007 2.50209e-006 -0.0117 -4.1944 -0.0248 0.0129788 0.00231961 -8.89077e-005 -0.0071 -2.3249 -0.0142 -4.77083e-015 -9.54166e-015 -9.54166e-015 -0.6113 -8.7231 -2.0637 1.50859e-006 8.55766e-007 2.50209e-006 0.1927 -3.8059 -0.2383 0.0163971 0.00304185 -0.000879611 0.1091 -2.1688 -0.1362 3.18055e-015 -2.8625e-014 6.36111e-015 0.6151 -8.0947 -3.564 1.50859e-006 8.55766e-007 2.50209e-006 0.4882 -2.341 -0.6462 0.0145683 0.0036765 -0.00326692 0.3574 -1.7166 -0.4742 3.18055e-015 6.36111e-015 3.18055e-015 1.4199 -1.8761 1.4221 1.50859e-006 8.55766e-007 2.50209e-006 1.1472 -3.4929 2.6336 3.18055e-015 -6.36111e-015 -3.18055e-015 0.8229 -2.3 1.6571 3.18055e-015 3.18055e-015 -0 -9.412 3.9771 -0.7758 -118.906 -36.1919 -134.184 -0.7531 -40.938 -7.10543e-015 -150.311 57.1985 149.637 1.77636e-015 -40.1986 3.55271e-015 -5.35632 -23.0665 0.667322 -1.77636e-015 -4.4182 9.239 -1.21107e-006 8.72877e-007 -5.66279e-006 9.4119 3.9773 -0.7758 39.1194 28.0514 73.0452 0.7532 -40.9383 7.10543e-015 84.9593 48.2282 -110.801 -7.10543e-015 -40.1986 -3.55271e-015 0.764563 26.0657 29.7963 7.10543e-015 -4.4182 9.239 3.68072e-007 -1.07703e-006 7.44889e-007 
0.40454 64.861 0.730904 -0.00623903 -9.31969 -170.052 -2.22045e-016 8.7983 -4.7612 0.0355384 10.835 -0.190256 0 8.0291 0.4195 0.111588 21.6699 -0.398542 -2.22045e-016 9.9351 -2.2114 0.111588 21.6699 -0.398542 -6.66134e-016 22.3885 -0.4656 -4.25063 -12.6351 -7.76975 -0.0001 12.643 3.4389 -4.11962 -6.69465 -0.779101 2.2603 21.606 7.4023 -43.4556 -44.1282 -37.4927 13.5163 -1.1332 -5.0146 64.9704 31.7504 12.0849 -0.0995 -28.05 -0.2431 -20.8841 1.79344 18.9752 0.0679 -23.3996 -0.1402 -20.7872 -31.5463 2.64373 0.7932 -9.06901 2.5189 4.13182e-006 3.1359e-006 -1.10852e-005 -0.8272 -3.3923 0.5977 -1.59538e-006 6.27679e-006 -1.63715e-006 -0.5649 -2.3158 0.4082 5.48451e-006 2.54153e-006 1.25416e-005 0.9159 -9.20441 0.2193 4.13182e-006 3.1359e-006 -1.10852e-005 0.0117 -4.1944 -0.0248 -0.0128536 0.00232916 8.87461e-005 0.0071 -2.3249 -0.0142 2.75335e-006 4.79549e-006 4.17925e-006 0.6113 -8.72311 -2.0637 4.13182e-006 3.1359e-006 -1.10852e-005 -0.1927 -3.8059 -0.2383 -0.0160687 0.00299794 0.00086943 -0.1091 -2.1688 -0.1362 1.48023e-005 3.37441e-007 7.71238e-007 -0.6151 -8.09471 -3.5641 4.13182e-006 3.1359e-006 -1.10852e-005 -0.4882 -2.341 -0.6462 -0.0125972 0.00313159 0.00283147 -0.3575 -1.7167 -0.4742 8.03249e-007 1.75565e-006 -2.27206e-007 -1.42 -1.8761 1.4223 4.13182e-006 3.1359e-006 -1.10852e-005 -1.1471 -3.4929 2.6334 -1.59538e-006 6.27679e-006 -1.63715e-006 -0.823 -2.3 1.6571 5.48451e-006 2.54153e-006 1.25416e-005 -2.2603 21.606 7.4023 7.78791 -52.0822 17.3808 -13.5187 -1.1334 -5.0155 -69.8992 38.4217 -15.6581 0.0994 -28.0499 -0.2431 79.8229 -3.51526 -10.3697 -0.0679 -23.3996 -0.1402 10.7789 -29.4159 1.46214 -0.7932 -9.06911 2.5189 -3.53113e-031 -3.18055e-015 -6.36111e-015 0.8272 -3.3923 0.5977 -6.12672e-006 -2.82472e-006 2.53207e-006 0.565 -2.3158 0.4082 1.41245e-030 -6.36111e-015 1.27222e-014 -0.916 -9.20441 0.2193 -3.53113e-031 -3.18055e-015 -6.36111e-015 -0.0117 -4.1944 -0.0248 0.0129832 0.00231775 -8.84921e-005 -0.0071 -2.3249 -0.0142 7.65806e-007 -2.10796e-006 -3.16478e-007 -0.6113 -8.72311 -2.0637 -3.53113e-031 -3.18055e-015 -6.36111e-015 0.1927 -3.8059 -0.2383 0.0163133 0.00303403 -0.000872266 0.1091 -2.1688 -0.1362 1.50898e-006 -3.4082e-006 2.50272e-006 0.6151 -8.09471 -3.564 -3.53113e-031 -3.18055e-015 -6.36111e-015 0.4882 -2.341 -0.6462 0.0145163 0.00366114 -0.00324909 0.3574 -1.7166 -0.4742 3.82904e-006 8.13151e-007 -1.58224e-006 1.4199 -1.8761 1.4221 -3.53113e-031 -3.18055e-015 -6.36111e-015 1.1472 -3.4929 2.6336 -6.12672e-006 -2.82472e-006 2.53207e-006 0.8229 -2.3 1.6571 1.41245e-030 -6.36111e-015 1.27222e-014 -9.412 3.9771 -0.7758 -119.364 -36.2024 -134.653 -0.7531 -40.938 -2.13163e-014 -150.317 57.1938 149.644 -1.77636e-015 -40.1986 -3.55271e-015 -5.19743 -23.0623 0.501346 0 -4.4182 9.239 -6.27673e-007 2.57734e-006 1.24399e-007 9.4119 3.9773 -0.7758 38.8627 27.6099 73.4916 0.7532 -40.9383 7.10543e-015 84.9794 48.2291 -110.82 0 -40.1986 0 0.834101 26.1444 29.8079 -7.10543e-015 -4.4182 9.239 3.67895e-007 -8.29623e-008 7.45022e-007 
